<svg width="217" height="217" viewBox="0 0 217 217" fill="none" xmlns="http://www.w3.org/2000/svg">
<path d="M181.6 216.9H35.3C15.8 216.9 0 201.1 0 181.6V35.3C0 15.8 15.8 0 35.3 0H181.6C201.1 0 216.9 15.8 216.9 35.3V181.6C216.9 201.1 201.1 216.9 181.6 216.9Z" fill="#262626"/>
<path d="M106.7 138.1C99.8001 138.1 94.1001 132.5 94.1001 125.5C94.1001 118.6 99.7001 112.9 106.7 112.9C113.7 112.9 119.3 118.5 119.3 125.5C119.3 132.5 113.7 138.1 106.7 138.1Z" fill="white"/>
<path d="M150.9 103.5V128.9C150.9 129.1 150.9 129.3 150.9 129.4C149.6 144.4 140.8 157.2 128.3 164.2C121.9 167.8 114.6 169.8 106.7 169.8C99 169.8 91.8 167.8 85.5 164.4C76.4 159.4 69.2 151.3 65.4 141.5C63.6 136.8 62.8 131.8 62.8 126.7V83.7999C62.8 82.8999 63.8 82.3999 64.5 82.8999L77.9 91.8999L83 95.2999C84.6 96.3999 85.6 98.1999 85.6 100.2V125.4C85.6 131.7 88.2 137.9 93.1 141.9C97.3 145.4 102.9 147.4 109 146.8C119 145.8 127.2 137.8 128.2 127.8C129.1 119.5 125.2 112.1 119 107.8C118.9 107.7 118.7 107.6 118.6 107.5L86.6 85.9999L85.5 85.2999L65.5 71.7999C63.8 70.6999 62.8 68.7999 62.8 66.7999V43.4999C62.8 42.4999 63.9 41.8999 64.8 42.3999L85.5 56.3999L128.3 85.2999L148.5 98.9999C150 99.9999 150.9 101.7 150.9 103.5Z" fill="white"/>
<path d="M119.3 125.5C119.3 132.5 113.7 138.1 106.7 138.1C99.8001 138.1 94.1001 132.5 94.1001 125.5C94.1001 118.6 99.7001 112.9 106.7 112.9C113.7 112.9 119.3 118.6 119.3 125.5Z" fill="white"/>
<path d="M119.3 125.5C119.3 132.5 113.7 138.1 106.7 138.1C99.8001 138.1 94.1001 132.5 94.1001 125.5C94.1001 118.6 99.7001 112.9 106.7 112.9C113.7 112.9 119.3 118.6 119.3 125.5Z" fill="white"/>
</svg>
